<svg id="Layer_4" data-name="Layer 4" xmlns="http://www.w3.org/2000/svg" viewBox="0 0 630 700"><defs><style>.cls-1{fill:#201e20;}</style></defs><path class="cls-1" d="M628.41,198V505.78a42.85,42.85,0,0,1-7.23,20.56,43.38,43.38,0,0,1-12.1,12.2l-6.45,3.65a46,46,0,0,1-36.53.88l-10.19-5.75-17.17-9.73L493.9,502.23l2.87-1.62,12.64-7.15a45.34,45.34,0,0,0,14.36-8.13,43.8,43.8,0,0,0,15-42.17v-140a14.68,14.68,0,0,0,0-7.89,4.76,4.76,0,0,0-.32-1,15.72,15.72,0,0,0-17.71-10.17,9.52,9.52,0,0,0-1.18.25,15.61,15.61,0,0,0-7.28,4.16c-1.59,1-3.13,2-4.65,3,0,0-.05,0-.08,0l-13.62,7.69-44.12,25c0-.05,0-.1,0-.15-.27-1.35-.49-2.7-.71-4a126.75,126.75,0,0,1-1.44-15.32,5.54,5.54,0,0,1,0-.71v-.05c-.05-1.34-.07-2.69-.07-4s0-2.82.07-4.24v-.12a2.17,2.17,0,0,1,0-.44c.12-3.95.44-7.87.93-11.71.14-1.2.32-2.38.51-3.58.25-1.54.52-3.06.81-4.58,0-.27.1-.56.17-.83.61-3.14,1.35-6.25,2.18-9.31a132.24,132.24,0,0,1,43.17-66.5c.05,0,.08-.1.12-.12q3.79-3.16,7.84-6.08l24.95-14.08,10.46-5.93L556,162.61l9.53-5.39s0,0,.05,0a45.94,45.94,0,0,1,54.07,14.6A43.53,43.53,0,0,1,628.41,198Z"/><path class="cls-1" d="M583.35,547.75a47,47,0,0,1-17.74-3.45l-74.4-42.07s27.59-14.45,31.7-17.92a42.44,42.44,0,0,0,15.34-32.65c0-2.74-.3-151.18-.3-152.47a12.56,12.56,0,0,0-.48-3.56,4.11,4.11,0,0,0-.26-.86,14.34,14.34,0,0,0-13.66-9.66,14,14,0,0,0-2.61.25,9.52,9.52,0,0,0-1.09.22c-1.37.35-4.21,2.08-6.75,3.75-2.12,1.41-64.65,37.13-64.65,37.13s-.45-4.66-.66-5.91l-.06-.34a131.39,131.39,0,0,1-1.46-15.48c0-.2,0-.46,0-.76-.05-1.36-.07-2.72-.07-4.09s0-2.85.07-4.29a3.31,3.31,0,0,1,.05-.74,114.57,114.57,0,0,1,.92-11.65c.14-1.21.32-2.4.51-3.62.25-1.55.53-3.09.82-4.62.08-.42.13-.69.2-.95.57-3,1.32-6.13,2.17-9.29a132.87,132.87,0,0,1,43.61-67.17l.32-.26c2.37-2,5-4.07,7.71-6l62.73-35.43A47.3,47.3,0,0,1,620.7,171a44.6,44.6,0,0,1,9,27V505.78a45.6,45.6,0,0,1-19.92,33.86l-6.52,3.7A46.59,46.59,0,0,1,583.35,547.75ZM496.6,502.23l70.16,39.69a44.68,44.68,0,0,0,35.32-.93l6.34-3.6a43,43,0,0,0,18.67-31.71V198a42,42,0,0,0-8.5-25.44,44.63,44.63,0,0,0-52.32-14.25L504,193.53c-2.51,1.81-5.12,3.83-7.65,5.93a130.52,130.52,0,0,0-42.86,66c-.84,3.1-1.57,6.2-2.16,9.21a5.63,5.63,0,0,0-.14.65c-.32,1.68-.59,3.19-.83,4.72-.2,1.19-.36,2.34-.51,3.53-.49,3.89-.8,7.79-.92,11.59l0,.4c-.06,1.57-.08,3-.08,4.36s0,2.66.08,4a6.34,6.34,0,0,0,0,.67,125.41,125.41,0,0,0,1.43,15.25l0,.33c.12.67.22,1.33.34,2l56.4-31.93c1.44-1,13-7.4,13.4-7.45a17,17,0,0,1,19.13,11.05A5,5,0,0,1,540,295c.37,1.22.58,162.54,0,165.43a45.62,45.62,0,0,1-15.41,25.92C520.26,490,496.6,502.23,496.6,502.23Z"/><path class="cls-1" d="M1.59,502.11V194.36A42.85,42.85,0,0,1,8.82,173.8a43.38,43.38,0,0,1,12.1-12.2L27.36,158a46,46,0,0,1,36.53-.88l10.2,5.76,17.17,9.72,44.84,25.36-2.87,1.62-12.64,7.15a45.17,45.17,0,0,0-14.36,8.14,43.79,43.79,0,0,0-15,42.16V397a14.68,14.68,0,0,0,0,7.89,4.76,4.76,0,0,0,.32,1,15.72,15.72,0,0,0,17.71,10.17,9.52,9.52,0,0,0,1.18-.25,15.61,15.61,0,0,0,7.28-4.16c1.59-1,3.13-2,4.65-3,0,0,0,0,.08-.05l13.62-7.69,44.12-25s0,.09,0,.14c.27,1.35.49,2.7.71,4a126.75,126.75,0,0,1,1.44,15.32,5.54,5.54,0,0,1,0,.71v.05c0,1.34.07,2.69.07,4s0,2.82-.07,4.24v.12a2.17,2.17,0,0,1,0,.44c-.12,3.95-.44,7.87-.93,11.71-.14,1.2-.32,2.38-.51,3.58-.25,1.54-.52,3.06-.81,4.58-.05.27-.1.57-.17.83-.61,3.14-1.35,6.25-2.18,9.31a132.24,132.24,0,0,1-43.17,66.5c0,.05-.08.1-.13.12q-3.78,3.17-7.84,6.08l-24.94,14.09-10.46,5.92L74,537.54l-9.53,5.39s0,0,0,0a45.94,45.94,0,0,1-54.07-14.6A43.53,43.53,0,0,1,1.59,502.11Z"/><path class="cls-1" d="M46.82,547.75A47,47,0,0,1,9.3,529.14a44.6,44.6,0,0,1-9-27V194.36A45.63,45.63,0,0,1,20.18,160.5l6.53-3.7a47.31,47.31,0,0,1,37.68-1l74.4,42.07-17.55,9.93a44.4,44.4,0,0,0-14.15,8,43,43,0,0,0-14.53,24.41C92,243,92.05,399.67,92.05,401a12.78,12.78,0,0,0,.48,3.57,4.18,4.18,0,0,0,.26.85A14.34,14.34,0,0,0,106.45,415a14.71,14.71,0,0,0,2.6-.24c.41-.06.74-.14,1.07-.22,2.55-.65,71.43-40.88,71.43-40.88s.45,4.65.66,5.9l.06.34a133.22,133.22,0,0,1,1.46,15.48c0,.2,0,.47,0,.76.05,1.36.07,2.73.07,4.09s0,2.85-.07,4.29a3.31,3.31,0,0,1-.05.74,114.57,114.57,0,0,1-.92,11.65c-.14,1.21-.32,2.41-.51,3.62-.26,1.56-.53,3.09-.82,4.62-.08.43-.13.7-.2.95-.57,3-1.31,6.12-2.17,9.29a133,133,0,0,1-43.6,67.17l-.38.29c-2.29,1.95-4.95,4-7.66,6L64.71,544.27A47,47,0,0,1,46.82,547.75ZM46.65,155a44,44,0,0,0-18.73,4.11l-6.35,3.6A41.9,41.9,0,0,0,9.92,174.53a41.56,41.56,0,0,0-7,19.93V502.11a42,42,0,0,0,8.5,25.44A44.6,44.6,0,0,0,63.7,541.82s67.46-39.06,70-41.14a130.57,130.57,0,0,0,42.86-66c.84-3.1,1.57-6.2,2.16-9.21.07-.28.11-.46.14-.64.32-1.69.59-3.2.83-4.73.2-1.19.36-2.34.51-3.52.49-3.9.8-7.8.92-11.6l0-.4c.06-1.57.08-3,.08-4.36s0-2.66-.08-4a6.34,6.34,0,0,0,0-.67,127.12,127.12,0,0,0-1.43-15.25l-.05-.33c-.12-.66-.22-1.33-.34-2,0,0-69.37,39.33-69.8,39.38a16,16,0,0,1-3,.28,17,17,0,0,1-16.12-11.33,5,5,0,0,1-.36-1.19c-.38-1.23-.58-162.53,0-165.44a45.71,45.71,0,0,1,15.42-25.92c4.36-3.67,28-15.89,28-15.89L63.24,158.22A44.29,44.29,0,0,0,46.65,155Z"/><path class="cls-1" d="M449,474.54c-.12.69-.24,1.4-.39,2.09l.39.22v50.76l-.49.27c.17.91.34,1.82.49,2.75v76.24a43.77,43.77,0,0,1-17.76,32.27l0,0-9.53,5.42-.17.07-17.32,9.83-3.7,2.08-37.17,21-4,2.25-20,11.32-.25.15-5,2.84s0,0,0,0a46,46,0,0,1-36.73,1.3l-.15-.08-10.34-5.85s-.09,0-.14-.1l-17-9.61-4.53-2.57-.12,0-35.43-20,0,0-4.73-2.67h0l-17.17-9.73s0,0,0,0L197.45,639h0A43.69,43.69,0,0,1,180,608.22V532.34c.22-1.44.49-2.89.76-4.31a130.7,130.7,0,0,1,7.22-24.5,134.13,134.13,0,0,1,37.51-51.67h0c1-.84,1.91-1.62,2.87-2.4a136.1,136.1,0,0,1,38.12-21.56c1.05-.42,2.11-.79,3.18-1.16V546a43.51,43.51,0,0,0,0,15.1,43.72,43.72,0,0,0,9.22,20.16,40.6,40.6,0,0,0,4.68,5,44.8,44.8,0,0,0,17.61,9.95l.05,0a45.68,45.68,0,0,0,13.26,1.94,46.34,46.34,0,0,0,13.37-2,0,0,0,0,0,0,0,45,45,0,0,0,17.42-9.85h0a39,39,0,0,0,4.9-5.22,43.9,43.9,0,0,0,9.12-20.21,44,44,0,0,0,0-14.6V325c.68.22,1.34.47,2,.71a137.46,137.46,0,0,1,40.3,22.79c.69.56,1.35,1.13,2,1.71h0s0,0,0,0a133.39,133.39,0,0,1,44.84,76.07c.15.81.29,1.62.44,2.43Z"/><path class="cls-1" d="M314.19,700a46.94,46.94,0,0,1-17.36-3.3L196.63,640a45.12,45.12,0,0,1-18-31.68v-76c.24-1.66.51-3.12.78-4.56A133.13,133.13,0,0,1,186.74,503a135.89,135.89,0,0,1,37.88-52.19l.39-.32c.83-.72,1.68-1.41,2.52-2.1A137.3,137.3,0,0,1,266,426.65c1.05-.41,2.12-.78,3.22-1.16l1.75-.59s-.45,133.6,0,136a42.54,42.54,0,0,0,8.93,19.56,38.6,38.6,0,0,0,4.54,4.8,43.5,43.5,0,0,0,17.1,9.66l.34.12a45.43,45.43,0,0,0,24.67.15h0l.95-.29a44,44,0,0,0,16.91-9.56l.41-.34a40.23,40.23,0,0,0,4.36-4.71A42.82,42.82,0,0,0,358,560.64c.4-2.44,0-237.42,0-237.42l1.73.56c.55.18,1.09.37,1.63.57l.45.16a138.42,138.42,0,0,1,40.69,23l2.54,2.13A135.35,135.35,0,0,1,449.9,426.1l.44,2.45,0,178.32A45.17,45.17,0,0,1,432.2,640.1l-97.85,55.39A46.64,46.64,0,0,1,314.19,700Zm-26.65-11.58,10.27,5.82a44.83,44.83,0,0,0,35.51-1.2l5.11-2.89L430.56,638a42.46,42.46,0,0,0,17.16-31.24v-178l-.42-2.2a132.68,132.68,0,0,0-44-75l-.85-.7c-.53-.46-1.06-.9-1.59-1.34A135.68,135.68,0,0,0,360.93,327l-.26-.09s.41,231.58,0,234.16a45.46,45.46,0,0,1-9.4,20.83,39.89,39.89,0,0,1-5.05,5.38l-.4.34a46.71,46.71,0,0,1-16.6,9.5v.34l-1.14,0a48.08,48.08,0,0,1-27,0h-.36l-.18-.17a46.5,46.5,0,0,1-17.83-10.14,42.79,42.79,0,0,1-4.82-5.11,45.23,45.23,0,0,1-9.48-20.76c-.45-2.52,0-132.72,0-132.72l-1.37.52a134.38,134.38,0,0,0-37.78,21.36c-.94.77-1.89,1.54-2.83,2.36l-.41.33A133.29,133.29,0,0,0,189.19,504,131.12,131.12,0,0,0,182,528.28c-.26,1.4-.52,2.83-.75,4.26l0,75.68a42.42,42.42,0,0,0,16.77,29.58h0Z"/><path class="cls-1" d="M449,101.28v70.15c-.05.27-.12.56-.17.83a128.56,128.56,0,0,1-6.61,23.1,134.06,134.06,0,0,1-36.85,52.43c-.32.3-.64.57-1,.84a136.92,136.92,0,0,1-45.1,25.8V154.32a43.54,43.54,0,0,0,0-15.33,44,44,0,0,0-10.56-21.64h0a42.15,42.15,0,0,0-4.09-4s0,0-.05,0a44.38,44.38,0,0,0-15.29-8.68l0,0a45.6,45.6,0,0,0-14.63-2.38,46.39,46.39,0,0,0-15.39,2.62,45.39,45.39,0,0,0-13.86,7.87,44.44,44.44,0,0,0-15.76,28.61,42.18,42.18,0,0,0,0,10.69V324.6l-1,.59,1-.37v50.6l-.41-.15c-2.28-.81-4.54-1.67-6.76-2.57a138.76,138.76,0,0,1-29.85-16.88c-2.15-1.6-4.24-3.26-6.27-4.95-.32-.25-.61-.52-.93-.76a.87.87,0,0,0-.15-.13l-.17-.14c.05,0,.08,0,.1-.08l-.12.05a134.1,134.1,0,0,1-44.62-76.27c0-.14-.05-.27-.07-.41-.15-.81-.32-1.62-.44-2.45V225.87c.12-.69.24-1.4.37-2.09,0-.14,0-.27.07-.41l-.44-.25v-130a43.86,43.86,0,0,1,20.19-33.64.18.18,0,0,1,.09,0l4.34-2.45s.05,0,.07,0l20.14-11.4,1.72-1,.05,0L267.1,21.56a.07.07,0,0,0,0,0h0l2.5-1.42L288,9.75l8-4.54A46.22,46.22,0,0,1,332.57,5s.05,0,.05,0l8.91,5s.05,0,.05,0l17.77,10,3.77,2.13h0l37.19,21.05s0,0,0,0l3.85,2.18,19.55,11.08.17.1,5.22,2.91a1.66,1.66,0,0,1,.24.17A43.85,43.85,0,0,1,449,92.22v.12c0,1.39-.08,2.79-.08,4.19s0,2.67.08,4v0C449,100.82,449,101,449,101.28Z"/><path class="cls-1" d="M271,377.24l-2.19-.72c-2.29-.82-4.57-1.68-6.81-2.6a140.18,140.18,0,0,1-30.14-17c-2-1.44-4-3-6.33-5l-1.28-1.07a136.11,136.11,0,0,1-45.06-77l-.2-1.1c-.12-.6-.23-1.2-.32-1.82l0-177.8a45.46,45.46,0,0,1,20.8-34.75l.39-.21,4.48-2.67.14.05,90.9-51.43a47.54,47.54,0,0,1,37.48-.41l1.07.56,8,4.51,1,.56,87.23,49.36a45,45,0,0,1,20.22,33.45c0,1.67-.06,3.06-.06,4.44s0,2.64.07,3.94a6.34,6.34,0,0,0,0,.67v.14l-.2,71.2a130.27,130.27,0,0,1-6.68,23.36,135.79,135.79,0,0,1-37.21,52.95c-.31.28-.64.56-1,.85a137.32,137.32,0,0,1-45.52,26l-1.76.59s.47-134.65,0-137a42.47,42.47,0,0,0-9.85-20.55l-.42-.45a40,40,0,0,0-3.63-3.62h0l-.38-.32a42.74,42.74,0,0,0-14.83-8.42l-.36-.14a45.31,45.31,0,0,0-28.83.35,43.48,43.48,0,0,0-13.45,7.64,43,43,0,0,0-5.24,5.13A42.26,42.26,0,0,0,271,141.47C270.77,143.05,271,377.24,271,377.24Zm-44.24-27.77.43.35c2.36,2,4.34,3.52,6.25,4.93A137.25,137.25,0,0,0,263,371.47q2.65,1.08,5.35,2.07V152a82.19,82.19,0,0,1,0-10.87,45.74,45.74,0,0,1,16.21-29.45,46.43,46.43,0,0,1,14.27-8.09,47.89,47.89,0,0,1,30.88-.26l.36.14a45.58,45.58,0,0,1,15,8.49h.06l.44.42a46.1,46.1,0,0,1,3.75,3.65l.41.44a45.16,45.16,0,0,1,10.88,22.29,88.81,88.81,0,0,1,0,15.81l0,118a134.69,134.69,0,0,0,42.92-24.94c.31-.26.61-.52.92-.8A133.14,133.14,0,0,0,441,194.89,128.51,128.51,0,0,0,447.57,172l.17-.82,0-69.85a6.78,6.78,0,0,1,0-.78c0-1.34-.07-2.7-.07-4s0-2.82.07-4.24a42.31,42.31,0,0,0-19-31.43L332,6.17a45.08,45.08,0,0,0-35.46.25l-96,54.29a43,43,0,0,0-19.3,32.46V222.34l0,3.76,0,44.58c.07.38.18.95.29,1.51l.13.69.07.41a133.47,133.47,0,0,0,43.57,75Z"/></svg>