<svg id="WEBSITE_LOGO" data-name="WEBSITE LOGO" xmlns="http://www.w3.org/2000/svg" viewBox="0 0 537 600"><defs><style>.cls-1{fill:#e0a96d;}</style></defs><path class="cls-1" d="M534.62,169.74V433.53a36.74,36.74,0,0,1-6.2,17.62,37.55,37.55,0,0,1-10.37,10.46l-5.53,3.13a39.41,39.41,0,0,1-31.31.75l-8.73-4.93-14.73-8.34-38.43-21.74,2.46-1.38L432.62,423a38.75,38.75,0,0,0,12.3-7,37.87,37.87,0,0,0,12.83-21.56,37.27,37.27,0,0,0,0-14.58v-120a12.39,12.39,0,0,0,0-6.76,3.6,3.6,0,0,0-.27-.88,13.41,13.41,0,0,0-12.75-8.95,13.9,13.9,0,0,0-2.43.23c-.34.05-.67.13-1,.21a13.29,13.29,0,0,0-6.24,3.58c-1.36.83-2.69,1.7-4,2.58,0,0,0,0-.06,0l-11.68,6.59-37.82,21.4s0-.08,0-.12c-.23-1.16-.42-2.31-.61-3.47a109,109,0,0,1-1.24-13.12c0-.21,0-.4,0-.61v0c0-1.16-.06-2.31-.06-3.47s0-2.41.06-3.63v-.11a2.3,2.3,0,0,1,0-.37c.11-3.39.38-6.75.8-10,.13-1,.27-2,.44-3.07.21-1.32.44-2.62.69-3.93.05-.23.09-.48.15-.71.53-2.69,1.16-5.36,1.87-8a113.41,113.41,0,0,1,37-57c.05,0,.07-.08.11-.1,2.16-1.81,4.41-3.55,6.72-5.21l21.38-12.07,9-5.09,14.79-8.35,8.17-4.62s0,0,0,0a39.39,39.39,0,0,1,46.35,12.52A37.32,37.32,0,0,1,534.62,169.74Z"/><path class="cls-1" d="M496,469.5a40.14,40.14,0,0,1-15.2-3L417,430.48s23.65-12.38,27.18-15.36a36.84,36.84,0,0,0,12.45-20.92c.46-2.33.44-136.65.44-137.75a11,11,0,0,0-.41-3,4.32,4.32,0,0,0-.22-.74,12.32,12.32,0,0,0-11.72-8.28,12.52,12.52,0,0,0-2.23.21,7.74,7.74,0,0,0-.94.2c-2.16.54-61.19,35-61.19,35s-1.72-14.19-1.87-18.62a6.33,6.33,0,0,1,0-.65c-.05-1.17-.06-2.34-.06-3.51s0-2.44.06-3.67a3.08,3.08,0,0,1,0-.64,98.49,98.49,0,0,1,.79-10c.12-1,.27-2.06.44-3.1.21-1.33.45-2.65.7-4,.07-.36.11-.59.17-.81.49-2.54,1.13-5.25,1.86-8a113.9,113.9,0,0,1,37.38-57.57l.28-.22c2-1.72,4.31-3.49,6.61-5.14l53.76-30.37a40.54,40.54,0,0,1,47.49,13,38.23,38.23,0,0,1,7.75,23.17V433.53a39.12,39.12,0,0,1-17.08,29l-5.59,3.17A40,40,0,0,1,496,469.5Zm-74.36-39,60.14,34a38.4,38.4,0,0,0,30.28-.79l5.44-3.09a36.93,36.93,0,0,0,16-27.18V169.74a36,36,0,0,0-7.29-21.81,38.26,38.26,0,0,0-44.85-12.21L428,165.88c-2.15,1.55-4.39,3.29-6.56,5.09a111.93,111.93,0,0,0-36.74,56.53c-.72,2.66-1.34,5.32-1.84,7.9a3.36,3.36,0,0,0-.12.56c-.28,1.44-.51,2.73-.72,4-.17,1-.31,2-.43,3-.43,3.34-.69,6.68-.79,9.94l0,.34c-.05,1.35-.06,2.54-.06,3.74s0,2.28.06,3.42c0,.26,0,.41,0,.58A108.32,108.32,0,0,0,382,274.11l.05.28c.09.57.19,1.14.29,1.71l48.34-27.37c1.24-.83,11.11-6.33,11.49-6.38a13.89,13.89,0,0,1,2.57-.24,14.52,14.52,0,0,1,13.82,9.71,4.41,4.41,0,0,1,.31,1c.32,1,.5,139.32,0,141.79a39.09,39.09,0,0,1-13.21,22.22C441.91,420,421.63,430.48,421.63,430.48Z"/><path class="cls-1" d="M2.38,444V180.17a36.7,36.7,0,0,1,6.2-17.62A37.28,37.28,0,0,1,19,152.09L24.48,149a39.41,39.41,0,0,1,31.31-.75l8.73,4.93,14.73,8.34,38.43,21.73-2.46,1.39-10.84,6.13a38.92,38.92,0,0,0-12.3,7,37.86,37.86,0,0,0-12.83,21.57,37.27,37.27,0,0,0,0,14.58v120a12.42,12.42,0,0,0,0,6.77,3.74,3.74,0,0,0,.27.88,13.4,13.4,0,0,0,12.75,8.94,13,13,0,0,0,2.43-.23,7.26,7.26,0,0,0,1-.21,13.41,13.41,0,0,0,6.24-3.57q2-1.26,4-2.58s0,0,.06,0l11.68-6.6,37.82-21.4c0,.05,0,.09,0,.13.23,1.16.42,2.31.61,3.47a109,109,0,0,1,1.24,13.12c0,.21,0,.4,0,.61v0c0,1.16.06,2.31.06,3.47s0,2.41-.06,3.63v.1a2.36,2.36,0,0,1,0,.38c-.11,3.38-.38,6.74-.8,10-.13,1-.27,2-.44,3.07-.21,1.32-.44,2.62-.69,3.92-.05.24-.09.49-.15.72-.53,2.69-1.16,5.35-1.87,8a113.34,113.34,0,0,1-37,57c0,.05-.07.09-.11.11-2.16,1.8-4.41,3.55-6.72,5.21L88.21,460.88l-9,5.08-14.79,8.36-8.17,4.62,0,0A39.4,39.4,0,0,1,9.9,466.45,37.32,37.32,0,0,1,2.38,444Z"/><path class="cls-1" d="M41.15,483.08A40.28,40.28,0,0,1,9,467.13,38.25,38.25,0,0,1,1.25,444V180.17a39.1,39.1,0,0,1,17.07-29l5.6-3.17a40.52,40.52,0,0,1,32.29-.82L120,183.22S96.33,195.6,92.81,198.57a37,37,0,0,0-12.45,20.92c-.46,2.34-.44,136.66-.44,137.75a11.12,11.12,0,0,0,.41,3.07,4.45,4.45,0,0,0,.22.73,12.36,12.36,0,0,0,13.94,8.07,8.7,8.7,0,0,0,.92-.19c2.18-.55,61.22-35,61.22-35s1.72,14.23,1.87,18.62a6.23,6.23,0,0,1,0,.65c0,1.17.06,2.34.06,3.51s0,2.44-.06,3.67a3.08,3.08,0,0,1,0,.64,98.49,98.49,0,0,1-.79,10c-.12,1-.27,2.06-.44,3.1-.22,1.33-.45,2.64-.7,4-.07.37-.11.6-.17.81-.49,2.54-1.12,5.25-1.86,8a114.06,114.06,0,0,1-37.37,57.58l-.33.24c-2,1.68-4.24,3.45-6.57,5.12L56.49,480.09A40.31,40.31,0,0,1,41.15,483.08ZM41,146.47A37.71,37.71,0,0,0,25,150l-5.44,3.09a35.79,35.79,0,0,0-10,10.09,35.64,35.64,0,0,0-6,17.09V444a36,36,0,0,0,7.29,21.8A38.24,38.24,0,0,0,55.63,478s57.82-33.48,60-35.26a112,112,0,0,0,36.74-56.53c.72-2.66,1.34-5.32,1.84-7.9a3.51,3.51,0,0,0,.12-.55c.28-1.45.51-2.74.72-4.05.17-1,.31-2,.43-3,.43-3.34.69-6.69.79-9.94l0-.35c.05-1.35.06-2.53.06-3.73s0-2.29-.06-3.42c0-.26,0-.41,0-.58A109.48,109.48,0,0,0,155,339.59l0-.28c-.09-.57-.19-1.14-.29-1.71,0,0-59.45,33.7-59.83,33.75a13.81,13.81,0,0,1-2.57.24,14.53,14.53,0,0,1-13.82-9.71,4.16,4.16,0,0,1-.31-1c-.32-1.06-.5-139.32,0-141.81a39.14,39.14,0,0,1,13.22-22.21c3.73-3.15,24-13.63,24-13.63l-60.14-34A38,38,0,0,0,41,146.47Z"/><path class="cls-1" d="M380.87,406.75c-.1.59-.21,1.2-.33,1.79l.33.19v43.51l-.42.23c.15.78.3,1.55.42,2.35v65.36a37.49,37.49,0,0,1-15.22,27.65s0,0,0,0l-8.17,4.65-.14.06L342.44,561l-3.17,1.78-31.86,18L304,582.72l-17.16,9.7-.21.12-4.3,2.44a0,0,0,0,1,0,0,39.43,39.43,0,0,1-31.48,1.11l-.13-.06-8.86-5a.23.23,0,0,1-.13-.08l-14.57-8.23-3.89-2.21-.1,0-30.37-17.18,0,0L188.7,561h0L174,552.64a0,0,0,0,1,0,0l-8.71-4.93h0a37.4,37.4,0,0,1-14.95-26.36v-65c.18-1.24.42-2.48.65-3.69a111.9,111.9,0,0,1,6.19-21,114.91,114.91,0,0,1,32.15-44.29h0c.82-.72,1.64-1.39,2.46-2.06a116.77,116.77,0,0,1,32.68-18.48c.9-.36,1.8-.67,2.73-1V468a37,37,0,0,0,0,12.94A37.42,37.42,0,0,0,235,498.23a35.77,35.77,0,0,0,4,4.24,38.44,38.44,0,0,0,15.1,8.53l.05,0a39.07,39.07,0,0,0,11.36,1.66A39.65,39.65,0,0,0,277,511a0,0,0,0,0,0,0A38.68,38.68,0,0,0,292,502.54h0a34.23,34.23,0,0,0,4.2-4.48A37.54,37.54,0,0,0,304,480.74a37.94,37.94,0,0,0,0-12.52V278.61c.59.19,1.15.4,1.74.61a117.46,117.46,0,0,1,34.55,19.53c.59.48,1.15,1,1.74,1.47h0a0,0,0,0,0,0,0,114.36,114.36,0,0,1,38.43,65.21c.13.69.26,1.38.38,2.07Z"/><path class="cls-1" d="M265.29,600a40.21,40.21,0,0,1-14.89-2.83l-.27-.13L164.52,548.6a38.73,38.73,0,0,1-15.41-27.16V456.29c.2-1.42.44-2.67.67-3.9A113.92,113.92,0,0,1,156,431.17a116.57,116.57,0,0,1,32.47-44.73l.33-.27c.72-.62,1.44-1.21,2.16-1.8a118,118,0,0,1,33-18.67c.9-.35,1.82-.67,2.76-1l1.5-.51s-.38,114.51,0,116.55a36.41,36.41,0,0,0,7.66,16.77,34,34,0,0,0,3.88,4.11,37.58,37.58,0,0,0,14.66,8.28l.3.09a38.82,38.82,0,0,0,21.14.14h0l.81-.24a37.69,37.69,0,0,0,14.49-8.19l.35-.3a33,33,0,0,0,3.74-4,36.62,36.62,0,0,0,7.59-16.82c.34-2.09,0-203.5,0-203.5l1.48.48c.47.15.93.31,1.39.48l.38.14A118.72,118.72,0,0,1,341,297.87l1.44,1.21.73.61a116,116,0,0,1,38.44,65.54l.38,2.09,0,152.86a38.74,38.74,0,0,1-15.57,28.48l-.52.32-82.47,46.66-.89.49A39.8,39.8,0,0,1,265.29,600Zm-22.85-9.93,8.81,5a38.42,38.42,0,0,0,30.43-1l4.38-2.48,79-44.68a36.42,36.42,0,0,0,14.71-26.78V367.52l-.36-1.88a113.75,113.75,0,0,0-37.74-64.27l-.72-.6-1.36-1.15a116.41,116.41,0,0,0-34.21-19.33l-.22-.08s.34,198.49,0,200.71a38.93,38.93,0,0,1-8.05,17.85,34.76,34.76,0,0,1-4.33,4.61l-.34.29a39.72,39.72,0,0,1-14.23,8.14v.3l-1,0a41.14,41.14,0,0,1-23.17,0h-.3l-.16-.14a39.9,39.9,0,0,1-15.28-8.7,36.81,36.81,0,0,1-4.13-4.37,38.67,38.67,0,0,1-8.13-17.8c-.39-2.16,0-113.76,0-113.76l-1.18.44a115.71,115.71,0,0,0-32.38,18.31c-.8.66-1.61,1.33-2.42,2l-.35.28A114.35,114.35,0,0,0,158.14,432,112.24,112.24,0,0,0,152,452.81c-.23,1.2-.45,2.43-.64,3.66v64.86a36.38,36.38,0,0,0,14.37,25.36h0Z"/><path class="cls-1" d="M380.87,86.81v60.13c0,.23-.1.48-.15.71a110,110,0,0,1-5.67,19.8,114.82,114.82,0,0,1-31.58,44.94c-.27.26-.55.49-.82.72A117.11,117.11,0,0,1,304,235.22V132.28a36.93,36.93,0,0,0,0-13.15,37.58,37.58,0,0,0-9.05-18.54h0a37.07,37.07,0,0,0-3.51-3.47l0,0a38.15,38.15,0,0,0-13.11-7.43l0,0a39,39,0,0,0-12.53-2,39.67,39.67,0,0,0-13.19,2.25,38.78,38.78,0,0,0-11.89,6.74,38,38,0,0,0-4.62,4.53,37.33,37.33,0,0,0-8.88,20,35,35,0,0,0,0,9.15v148l-.88.5.88-.31v43.37l-.36-.13q-2.93-1-5.8-2.21A119,119,0,0,1,195.4,305c-1.85-1.37-3.64-2.8-5.38-4.25l-.8-.65a.53.53,0,0,0-.12-.1l-.15-.13s.06,0,.08-.06l-.1,0a114.93,114.93,0,0,1-38.24-65.37c0-.13-.05-.24-.07-.36-.12-.69-.27-1.39-.37-2.1V193.6c.1-.59.21-1.2.31-1.79l.06-.35-.37-.21V79.78a37.58,37.58,0,0,1,17.3-28.84.15.15,0,0,1,.08,0l3.72-2.1s0,0,.06,0L188.68,39l1.47-.81,0,0,34.73-19.65a.07.07,0,0,0,0,0h0l2.14-1.22,15.71-8.89,6.86-3.88A39.58,39.58,0,0,1,281,4.26s0,0,0,0l7.64,4.33s0,0,0,0L304,17.24l3.23,1.82h0l31.88,18s0,0,0,0l3.3,1.86,16.76,9.5.15.08,4.47,2.5a1.13,1.13,0,0,1,.21.15A37.56,37.56,0,0,1,380.85,79v.11c0,1.19-.06,2.39-.06,3.59s0,2.29.06,3.42v0C380.85,86.41,380.85,86.6,380.87,86.81Z"/><path class="cls-1" d="M228.26,323.35l-1.87-.62q-3-1.05-5.84-2.22a120.33,120.33,0,0,1-25.83-14.62c-1.67-1.23-3.4-2.59-5.43-4.27l-1.1-.92a116.66,116.66,0,0,1-38.62-66l-.17-1c-.1-.51-.2-1-.28-1.55V79.78A38.94,38.94,0,0,1,166.94,50l4.17-2.47,78-44a40.73,40.73,0,0,1,32.13-.35l.92.48L289,7.47l.85.48,49.55,28,.85.49,24.38,13.8A38.59,38.59,0,0,1,382,78.94c0,1.43-.06,2.62-.06,3.8s0,2.26.06,3.38a4.71,4.71,0,0,0,0,.57l-.16,61.15a111.35,111.35,0,0,1-5.73,20,116.38,116.38,0,0,1-31.89,45.38l-.84.73a117.92,117.92,0,0,1-39,22.32l-1.5.51s.4-115.42,0-117.47a36.45,36.45,0,0,0-8.45-17.62l-.35-.38a35,35,0,0,0-3.11-3.1h0l-.32-.28a36.59,36.59,0,0,0-12.71-7.21l-.31-.12a38.78,38.78,0,0,0-24.71.3,37.83,37.83,0,0,0-16,10.94,36.26,36.26,0,0,0-8.62,19.39C228.06,122.61,228.26,323.35,228.26,323.35Zm-37.92-23.81.37.3c2,1.69,3.72,3,5.36,4.23a117.76,117.76,0,0,0,25.34,14.34q2.26.91,4.58,1.76V130.28a72.36,72.36,0,0,1,0-9.31,38.46,38.46,0,0,1,9.14-20.58,38.85,38.85,0,0,1,4.76-4.67,40,40,0,0,1,12.23-6.93,41,41,0,0,1,26.47-.22l.3.12A38.9,38.9,0,0,1,291.79,96h0l.37.35a38,38,0,0,1,3.22,3.13l.36.38a38.85,38.85,0,0,1,9.32,19.1,76.76,76.76,0,0,1,0,13.56l0,101.13a115.19,115.19,0,0,0,36.78-21.37c.27-.23.53-.45.79-.69A114.28,114.28,0,0,0,374,167a110.59,110.59,0,0,0,5.61-19.6l.14-.7V86.87a5,5,0,0,1,0-.67c0-1.15-.06-2.32-.06-3.46s0-2.42.06-3.63a36.3,36.3,0,0,0-16.3-26.95L280.55,5.29a38.61,38.61,0,0,0-30.39.22L167.91,52a36.85,36.85,0,0,0-16.54,27.82V190.58l0,3.22,0,38.21c.06.33.15.81.25,1.29l.11.6.06.35a114.41,114.41,0,0,0,37.34,64.27Z"/></svg>